<?xml version="1.0" encoding="UTF-8"?>
<svg id="_圖層_1" data-name="圖層 1" xmlns="http://www.w3.org/2000/svg" viewBox="0 0 841.89 595.28">
  <defs>
    <style>
      .cls-1 {
        fill: #fff;
      }
    </style>
  </defs>
  <path class="cls-1" d="M410.72,351.52v-102.19h-10.85c-.12.12-.28.28-.45.45,0,1.82.02,3.65,0,5.48-.03,2.41-1.37,4.87-4.33,5.69-1.55.43-3.03.31-4.9.03-2.49-.38-3.53-2.15-4.42-4.12-.28-.61-.39-1.3-.38-2.02.01-.9-.24-1.79-.29-2.7-.06-.93-.01-1.86-.01-2.87h-6.23c-4,0-8,.03-12-.01-1.46-.01-2.83-.52-3.82-1.58-.98-1.04-1.7-2.28-1.62-3.82.03-.55,0-1.11,0-1.67,0-.86-.07-1.74.65-2.4.81-2.37,2.77-3.15,4.96-3.16,44.27-.04,88.54-.04,132.82,0,2.11,0,4.07.75,5.47,2.42.76.9,1.21,1.99,1.49,3.21.46,2.02.27,4.03.27,6.04.02,33.55.01,67.1.02,100.65,0,2-.56,3.86-1.7,5.45-.8,1.12-2.12,1.69-3.4,2.19-.53.21-1.12.33-1.69.33-8.78.02-17.55.01-26.33.01-.16,0-.31-.03-.5-.21.25-.04.51-.06.75-.13.29-.09.57-.27.86-.32,2.27-.38,4.42-1.18,6.34-2.37,2.45-1.51,4.82-3.15,6.51-5.61.89-1.3,1.91-2.5,2.56-3.95.7-1.56,1.26-3.16,1.59-4.84.3-1.51.46-3.04.72-4.55.28-1.64.23-3.25.26-4.87.03-1.61,0-3.22,0-4.83,0-19.05-.01-38.11.02-57.16,0-1.99-.6-3.74-1.72-5.29-.71-.98-1.92-1.42-3.03-1.86-1.72-.69-3.52-.49-5.17.12-1.25.46-2.44,1.28-3.05,2.63-.63,1.4-1.08,2.81-1.08,4.39.02,20.22,0,40.44.04,60.66,0,1.91-.34,3.79-.44,5.69-.09,1.6-.63,3.24-1.34,4.75-.62,1.34-1.26,2.64-2.35,3.7-1.35,1.32-2.92,2.21-4.72,2.7-1.33.37-2.65.71-4.06.68-1.61-.04-3.22,0-4.83,0-2.48,0-4.78-.85-6.78-2.1-2.3-1.43-3.81-3.68-4.52-6.39-.54-2.06-1.01-4.09-1.01-6.25.03-21,.01-41.99.03-62.99,0-1.78-.6-3.41-1.04-5.08-.25-.93-1.41-1.76-2.71-2.54-1.38-.83-2.89-1.19-4.42-.94-1.14.19-2.36.48-3.29,1.26-1.03.86-1.85,1.88-2.23,3.23-.38,1.34-.66,2.65-.66,4.06.02,20.66.02,41.33.01,61.99,0,1.57.56,3.11.34,4.69.62.8.16,1.78.43,2.65.28.89.46,1.81.72,2.7.25.84.53,1.67.85,2.48.72,1.84,1.56,3.62,2.8,5.17.75.93,1.48,1.9,2.37,2.67,1.23,1.08,2.49,2.27,3.95,2.9,2.3.99,4.57,2.2,7.14,2.46.7.52,1.56.24,2.35.55-.26.04-.53.11-.79.11-12.44,0-24.89.04-37.33-.02-2.68-.01-4.73-1.38-6.08-3.73-.26-.44-.44-.93-.79-1.67ZM471.09,328.22c.32-4.15-3.48-7.12-7.15-7.26-1.5-.06-4.15,1.03-5.22,2.22-1.26,1.4-1.9,3.05-2,5-.18,3.73,3.32,7.13,7.18,7.13,3.91,0,7.45-3.41,7.19-7.09ZM395.73,255.13c.41-1.93.47-4.29.18-5.8h-7.16c0,1.33-.11,2.61.03,3.86.16,1.35.5,2.74,2.01,3.27.85.29,1.64.66,2.69.21.88-.37,1.56-.87,2.25-1.55ZM498.13,249.28c.88-.04,1.97.27,2.67-.59.47-.58.98-1.24.96-2.09-.02-.83-.49-1.52-.98-2.08-.76-.87-1.89-.53-2.82-.58q-1.15.7-1.84,1.89c-.21,1.59.28,2.79,2.02,3.45Z"/>
  <path class="cls-1" d="M387.89,311.95c-.75,0-1.37.03-1.97,0-2.35-.13-4.4-.98-6.38-2.3-1.99-1.34-2.8-3.29-3.6-5.33-.04-.09-.18-.17-.18-.25.06-1.52-.67-3.01-.32-4.51.35-1.5.56-3.03,1.28-4.46.73-1.45,1.81-2.58,3.01-3.55.98-.79,2.24-1.23,3.49-1.59,1.81-.52,4.74-.86,6.38-.65.56.07,1.08.34,1.69.35.6.01,1.2.28,1.79.47.54.17,1.12.29,1.58.6,1.88,1.26,3.64,2.64,4.44,4.91.28.79.5,1.57.7,2.38.28,1.13.33,2.24.27,3.37-.18,3.3-1.28,6.24-3.95,8.32-1.25.98-2.78,1.52-4.35,1.94-1.35.36-2.68.27-3.88.31ZM379.21,300.83c.04.14.23.45.19.72-.13.92.24,1.68.7,2.38.39.58.87,1.13,1.41,1.58,1.09.9,2.4,1.63,3.76,1.71,2.05.12,4.13.31,6.19-.25,1.25-.34,2.26-1.05,3.23-1.83.43-.35.67-.94,1.05-1.5.03-.14.03-.42.15-.65,1.61-3.23-.66-7.05-3.21-8.07-1.29-.52-2.6-.76-3.93-.95-.76-.11-1.56-.07-2.33,0-.73.07-1.45.27-2.17.41-1.02.35-1.92.98-2.86,1.52-1.08.63-1.06,1.95-1.9,2.5-.1.8-.18,1.47-.3,2.44Z"/>
  <path class="cls-1" d="M400.19,345.56c.25,1.62-.79,3.01-.78,4.56-1.1,1.61-1.95,3.39-3.69,4.53-.97.63-2.1.87-3.05,1.51-.55.37-1.4-.11-1.97.45-1.46-.26-2.91.86-4.4.03-.34-.19-.88.02-1.32-.04-.41-.05-.8-.21-1.2-.32-2.8-.78-5.31-1.97-6.68-4.75-.32-.65-.75-1.25-.97-1.93-.22-.7-.12-1.5-.39-2.17-.38-.96-.38-1.92-.28-2.87.33-3.2,1.4-6.12,4.05-8.13,1.57-1.19,3.43-1.82,5.42-2.21,1.37-.27,2.7-.25,4.04-.25,2.41,0,4.59.91,6.64,2.03,1.7.94,3.65,3.79,4.1,5.74.28,1.25.34,2.55.5,3.82ZM387.89,338.51c-1.06.15-2.17.14-3.16.48-1,.34-2.06.59-2.98,1.26-1.12.82-2.04,1.85-2.26,3.11-.18,1-.49,2.06-.15,3.22.31,1.04.61,1.99,1.33,2.78,1.49,1.65,3.32,2.57,5.58,2.59.15,0,.34.03.44.12.49.42,1.2.36,1.54.14.49-.32.93-.22,1.4-.26,2.4-.22,4.41-1.11,5.79-3.19.52-.79.84-1.7.96-2.59.39-2.91-1.4-5.95-4.43-6.89-1.32-.41-2.63-.84-4.06-.78Z"/>
  <path class="cls-1" d="M376.47,269.84c-1.61-1.32-1.42-3.03.84-4.23h12.04c2.72,0,5.44.03,8.16-.01,1.17-.02,2.12.24,2.54,1.69q.05,1.42-.98,2.5c-2.9.8-5.76.34-8.61.52v10.23h7.71c1.78.55,2.05,1.62,1.91,2.93-.36.49-.73,1-1,1.36-3.4.75-6.65.37-9.88.43-3.28.06-6.55,0-9.83.02-1.18,0-2.25-.39-3.22-.76-1.11-1.34-1.02-2.28.82-3.95h9.42v-10.22c-3.22-.31-6.47.34-9.92-.5Z"/>
  <path class="cls-1" d="M399.33,331.96c-.43.23-.82.53-1.26.64-1.08.26-2.29-.79-2.31-2-.03-1.83,0-3.66,0-5.57h-18.28c-.75-.51-1.49-.75-1.8-1.63-.42-1.17.02-2.37,1.21-2.79.6-.21,1.2-.34,1.86-.34,5.38.02,10.76.01,16.14.01h.85v-5.64c.33-.66.57-1.11.84-1.65h2.12c.21.27.57.57.71.96.2.53.34,1.12.34,1.68.03,4.66.03,9.32,0,13.97,0,.73-.24,1.45-.4,2.34Z"/>
  <path class="cls-1" d="M414.36,395.62h3.74c.14.39.27.77.46,1.31h-3.82c.14,1.2.85,2.02,1.4,2.82.58.84,1.56,1.42,2.58,2.3-.41.16-.68.27-1.17.47-1.52-.63-2.64-2.14-3.57-4.01-1.17,1.61-2.03,3.36-4.11,4.2-.15-.17-.36-.39-.51-.56.37-1.29,1.73-1.32,2.21-2.42.38-.88.98-1.67,1.3-2.72h-3.03c-.4-.27-.62-.42-.92-.63.25-.3.41-.5.61-.75h3.54v-2.66h1.29v2.64Z"/>
  <path class="cls-1" d="M428.48,403.08c-.59-.18-.97-.3-1.35-.42v-8.6l.46-.46c2.54,0,5.09,0,7.64,0,.46,0,.88,0,1.22.59-.21,2.8.36,5.75-.4,8.7h-1.88c-.14-.21-.31-.47-.58-.85.56-.06.98-.11,1.44-.16v-7.23c-2.13-.09-4.32-.01-6.56-.05v8.48Z"/>
  <path class="cls-1" d="M451.14,398.35c-.66.76-.32,1.56-.37,2.3-.06.75-.01,1.52-.01,2.53-.54-.39-.88-.62-1.35-.96h-2.19c.31-.34.48-.52.8-.86v-2.81c-.44.12-.82.22-1.21.32v4h-1.67v-.82c.16-.06.35-.13.58-.21v-2.96c-.22.18-.34.28-.3.25-.28-.13-.53-.25-.93-.43.49-.41.8-.66,1.22-1.02v-1.66c-.26-.04-.57-.09-.87-.14q.15-.68.94-1.09v-1.39c.61-.33.98-.04,1.31.38v1.04c.18.06.37.13.62.21v.79c-.43.26-1.18.33-.85,1.4.35.47.98.76,1.79.73.55-.02,1.11-.04,1.66.01.24.02.47.21.84.39ZM449.21,399.45c-.06.33-.1.52-.15.77h1.2c-.43-.32-.69-.5-1.05-.77ZM449.17,400.64v1.01c.24-.05.39-.08.71-.14-.23-.28-.38-.46-.71-.87ZM449.17,398.31v1.01c.24-.05.39-.08.71-.14-.23-.28-.38-.46-.71-.87Z"/>
  <path class="cls-1" d="M454.18,393.62c-.24.28-.49.55-.75.85v1.96c.24.14.48.28.67.39-.01.19,0,.26-.02.29-.2.27-1.21.53-1.58.39-1.16-.42-2.3-.36-3.54.15-.19-.25-.4-.53-.66-.87.31-.11.5-.17.75-.25v-2.12c-.22-.24-.46-.52-.68-.77.12-.19.18-.36.24-.36,1.82-.01,3.63-.01,5.45-.01.05.11.09.23.14.34ZM450.15,394.34c.73.18,1.49.41,2.22,0h-2.22ZM452.36,396.56c-.63-.21-1.27-.41-1.88,0h1.88ZM450.47,395.34c0,.09,0,.18.01.28.59,0,1.18,0,1.77,0,.04,0,.08-.14.14-.27h-1.92Z"/>
  <path class="cls-1" d="M468.03,396.29h-1.54c-.03.2-.06.35-.1.62h2.3c.03.26.04.41.07.64h-5.96c-.01-.17-.02-.32-.04-.58h2.3v-.62h-1.55v-2.76c1.29-.7,2.75-.04,4.02-.36l.5.5v2.56ZM467.06,394h-2.61v.56h2.61v-.56ZM467.06,395h-2.24c.08.09.15.19.23.28-.23.04-.46.07-.68.11.04.05.08.11.12.16h2.57v-.56Z"/>
  <path class="cls-1" d="M454.75,398.45c-.19.19-.39.39-.63.63v2.08l.57.57c-.28.41-.55.81-.91,1.34-.19-.26-.35-.47-.56-.77h-2.18c.66-1.43.23-2.88.43-4.31.96,0,1.89,0,2.81,0,.16.16.31.31.47.47ZM453.6,401h-1.2c.04.25.08.44.14.77.37-.27.62-.45,1.06-.77ZM452.39,399.32c.4-.06.69-.1,1.2-.17-.47-.29-.72-.44-1.08-.66-.05.32-.08.5-.13.83ZM453.59,400.23c-.43-.32-.69-.5-1.06-.77-.06.33-.1.52-.14.77h1.2Z"/>
  <path class="cls-1" d="M463.48,398.72c.18-.18.29-.29.47-.47,1.32.23,2.77-.36,4.11.36v1.67c-.67.23-1.34.46-2.13.73.21.37.34.59.51.88-.12.26-.27.59-.45.99h-1.73c.26-.32.42-.51.74-.9v-1.29c-.46-.23-1.14.2-1.53-.6v-1.36ZM464.24,399.02c.3.42.5.7.61.84h2.19v-.84h-2.79Z"/>
  <path class="cls-1" d="M429.8,401.89v-4.24c1.3-.03,2.59-.04,3.89-.04v3.3h-2.66c-.34.27-.66.52-1.23.98ZM430.78,399.89h1.89v-1.56h-1.89v1.56Z"/>
  <path class="cls-1" d="M450.43,414.72c-.58-.19-1.21-.4-1.92-.63.05-.89-.72-1.54-.3-2.46.38-.81.95-1.35,1.91-1.64,2.07.63,2.88,2.72.3,4.73ZM448.7,412.2c.39.7.61,1.44,1.52,1.83.2-.34.43-.71.66-1.09.07.06.13.13.2.19v-1.73c-.32-.27-.68-.58-1.13-.95-.47.65-.86,1.2-1.25,1.75Z"/>
  <path class="cls-1" d="M462.42,412.04c-.14.55-.28,1.1-.45,1.79-.63.06-.97,1.15-2.07.68-2.15-1.91-2.07-3.1.43-4.56,1.09.31,1.79,1,2.08,2.09ZM459.42,413c.08-.02.16-.03.24-.05.22.38.44.76.63,1.09.48-.24.8-.4,1.13-.57v-2.05c-.3-.27-.66-.57-.92-.81-.43.33-.77.6-1.06.82v1.57Z"/>
  <path class="cls-1" d="M445.09,411.86v-1.12c.23-.17.48-.36.87-.65.27,1.46.03,2.76.16,3.99-.21.21-.37.37-.64.64-.04-.74-.07-1.37-.1-2.05h-1.92c-.02.48-.05,1-.07,1.56-.19.02-.34.04-.57.07v-3.96c.16-.01.31-.03.58-.05v1.58h1.68Z"/>
  <path class="cls-1" d="M471.85,398.98c.18.42.29.67.51,1.18-.31,1.21-1.7,1.89-2.9,2.86-.27-.21-.55-.43-.95-.74h-.89c-.59-.37-.59-.81-.47-1.34.79,0,.97.73,1.46.99.57-.35,1.21-.63,1.7-1.06.51-.45.87-1.05,1.54-1.89Z"/>
  <path class="cls-1" d="M437.42,410.31h2.51c.76.5.42,1.21.48,1.78-.3.31-.56.59-.82.86h-1.06c-.04.14-.11.29-.11.44.01.45.03.89-.48,1.17-.41-.17-.55-.48-.54-.95.03-1.05,0-2.1,0-3.29ZM439.75,411.08c-.19-.15-.38-.36-.62-.46-.18-.08-.41-.01-.65-.01v1.68c.47-.03.88-.06,1.27-.08v-1.13Z"/>
  <path class="cls-1" d="M432.15,410.31h.56v2.88c-.33.45-.71.96-1.13,1.53-.61-.17-1.16-.32-1.69-.46-.81-1.23-.34-2.56-.49-3.86.17-.05.32-.1.56-.17.38,1.23-.28,2.63.63,3.72h.73c.24-.38.49-.78.82-1.29v-2.33Z"/>
  <path class="cls-1" d="M434.49,395.74c-.16.3-.3.56-.44.83h-4.53c-.14-.18-.32-.43-.49-.65.24-.39,2.72-.44,5.46-.18Z"/>
  <path class="cls-1" d="M455.75,414.11l-.53.53c-.16-.27-.44-.52-.45-.78-.05-1.04-.02-2.09-.02-3.17-.36-.05-.66-.1-.98-.15.12-.36,1.02-.38,3.32-.07-.63.1-.93.14-1.34.2v3.43Z"/>
  <path class="cls-1" d="M427.36,410.48c-.43.16-.85.31-1.29.47v3.26c-.19.03-.34.06-.6.1v-3.7h-1.42c.12-.19.17-.32.21-.32,1.03-.01,2.06,0,3.09,0,0,.07,0,.13,0,.2Z"/>
  <path class="cls-1" d="M421.06,410.98v3.56c-.06.04-.12.09-.19.13-.06-.21-.11-.41-.17-.62-.08.06-.15.12-.23.17v-3.54c-.52-.06-.89-.16-1.38-.34h3.48c-.62.26-1.06.44-1.51.63Z"/>
  <path class="cls-1" d="M468.99,398.64c.54-.74,1.28-1.32,1.88-1.98h1.13c.04.14.12.28.08.34-.53.75-1.17,1.39-2.01,1.81-.38.19-.68.27-1.08-.17Z"/>
  <path class="cls-1" d="M472.05,393.69c-.75.75-1.48,1.48-2.25,2.25h-.68c-.02-.26-.03-.52-.04-.77.74-.62,1.48-1.23,2.3-1.91.18.12.44.29.67.44Z"/>
  <path class="cls-1" d="M463.38,402.74c-.28-.29-.44-.44-.58-.59.26-.37.53-.75.83-1.18h.83c-.17.72-.4,1.29-1.08,1.76Z"/>
  <path class="cls-1" d="M467.75,328.74c-.48,1.74-1.4,2.67-3.16,3.17h-1.42c-1.56-.47-2.67-1.28-3-2.88-.31-2.78,1.15-4.26,3.96-4.68.37.09.87.21,1.71.41.21.11.39.85,1.09.86.25.51.51,1.01.82,1.63v1.48Z"/>
</svg>